<svg width="1012" height="72" viewBox="0 0 1012 72" fill="none" xmlns="http://www.w3.org/2000/svg">
<rect width="219" height="72" rx="18" fill="#EFF4F8"/>
<path d="M75.5039 37.7139C75.3369 39.1426 74.8081 40.2466 73.9175 41.0259C73.033 41.799 71.8548 42.1855 70.3828 42.1855C68.7871 42.1855 67.5068 41.6134 66.542 40.4692C65.5833 39.325 65.104 37.7943 65.104 35.877V34.5781C65.104 33.3226 65.3267 32.2186 65.772 31.2661C66.2235 30.3136 66.8605 29.5838 67.6831 29.0767C68.5057 28.5633 69.4582 28.3066 70.5405 28.3066C71.9754 28.3066 73.1258 28.7087 73.9917 29.5127C74.8576 30.3105 75.3617 31.4176 75.5039 32.834H73.7134C73.5588 31.7578 73.2217 30.9785 72.7021 30.4961C72.1888 30.0137 71.4683 29.7725 70.5405 29.7725C69.4025 29.7725 68.5088 30.193 67.8594 31.0342C67.2161 31.8753 66.8945 33.0721 66.8945 34.6245V35.9326C66.8945 37.3984 67.2007 38.5643 67.813 39.4302C68.4253 40.2961 69.2819 40.729 70.3828 40.729C71.3724 40.729 72.13 40.5063 72.6558 40.061C73.1877 39.6095 73.5402 38.8271 73.7134 37.7139H75.5039ZM79.5396 42H77.8232V27.75H79.5396V42ZM84.1597 42H82.4434V31.9619H84.1597V42ZM82.3042 29.2993C82.3042 29.021 82.3877 28.786 82.5547 28.5942C82.7279 28.4025 82.9814 28.3066 83.3154 28.3066C83.6494 28.3066 83.903 28.4025 84.0762 28.5942C84.2493 28.786 84.3359 29.021 84.3359 29.2993C84.3359 29.5776 84.2493 29.8096 84.0762 29.9951C83.903 30.1807 83.6494 30.2734 83.3154 30.2734C82.9814 30.2734 82.7279 30.1807 82.5547 29.9951C82.3877 29.8096 82.3042 29.5776 82.3042 29.2993ZM91.0806 42.1855C89.7199 42.1855 88.6128 41.7402 87.7593 40.8496C86.9058 39.9528 86.479 38.756 86.479 37.2593V36.9438C86.479 35.9481 86.6676 35.0605 87.0449 34.2812C87.4284 33.4958 87.9603 32.8835 88.6406 32.4443C89.3271 31.999 90.0693 31.7764 90.8672 31.7764C92.1722 31.7764 93.1865 32.2062 93.9102 33.0659C94.6338 33.9256 94.9956 35.1564 94.9956 36.7583V37.4727H88.1953C88.2201 38.4622 88.5076 39.2632 89.0581 39.8755C89.6147 40.4816 90.3198 40.7847 91.1733 40.7847C91.7795 40.7847 92.2928 40.661 92.7134 40.4136C93.134 40.1662 93.502 39.8384 93.8174 39.4302L94.8657 40.2466C94.0246 41.5392 92.7629 42.1855 91.0806 42.1855ZM90.8672 33.1865C90.1745 33.1865 89.5931 33.4401 89.123 33.9473C88.653 34.4482 88.3623 35.1533 88.251 36.0625H93.2793V35.9326C93.2298 35.0605 92.9948 34.3864 92.5742 33.9102C92.1536 33.4277 91.5846 33.1865 90.8672 33.1865ZM98.6138 31.9619L98.6694 33.2236C99.4364 32.2588 100.438 31.7764 101.675 31.7764C103.797 31.7764 104.867 32.9731 104.885 35.3667V42H103.169V35.3574C103.163 34.6338 102.996 34.0988 102.668 33.7524C102.346 33.4061 101.842 33.2329 101.156 33.2329C100.599 33.2329 100.111 33.3813 99.6899 33.6782C99.2694 33.9751 98.9416 34.3647 98.7065 34.8472V42H96.9902V31.9619H98.6138ZM109.802 29.5312V31.9619H111.676V33.2886H109.802V39.5137C109.802 39.9157 109.886 40.2188 110.053 40.4229C110.22 40.6208 110.504 40.7197 110.906 40.7197C111.104 40.7197 111.376 40.6826 111.723 40.6084V42C111.271 42.1237 110.832 42.1855 110.405 42.1855C109.638 42.1855 109.06 41.9536 108.67 41.4897C108.281 41.0259 108.086 40.3672 108.086 39.5137V33.2886H106.258V31.9619H108.086V29.5312H109.802ZM122.651 35.979C121.124 35.5399 120.01 35.0018 119.312 34.3647C118.619 33.7215 118.272 32.9299 118.272 31.9897C118.272 30.9259 118.696 30.0477 119.543 29.355C120.397 28.6561 121.504 28.3066 122.865 28.3066C123.792 28.3066 124.618 28.486 125.342 28.8447C126.072 29.2035 126.634 29.6982 127.03 30.3291C127.432 30.96 127.633 31.6496 127.633 32.3979H125.843C125.843 31.5815 125.583 30.9414 125.063 30.4775C124.544 30.0075 123.811 29.7725 122.865 29.7725C121.986 29.7725 121.3 29.9673 120.805 30.3569C120.317 30.7404 120.072 31.2754 120.072 31.9619C120.072 32.5124 120.304 32.9793 120.768 33.3628C121.238 33.7401 122.033 34.0864 123.152 34.4019C124.278 34.7173 125.156 35.0667 125.787 35.4502C126.424 35.8275 126.894 36.2697 127.197 36.7769C127.507 37.284 127.661 37.8809 127.661 38.5674C127.661 39.6621 127.234 40.5404 126.381 41.2021C125.527 41.8577 124.386 42.1855 122.958 42.1855C122.03 42.1855 121.164 42.0093 120.36 41.6567C119.556 41.298 118.934 40.8094 118.495 40.1909C118.062 39.5724 117.846 38.8704 117.846 38.085H119.636C119.636 38.9014 119.936 39.5477 120.536 40.0239C121.142 40.494 121.949 40.729 122.958 40.729C123.898 40.729 124.618 40.5373 125.119 40.1538C125.62 39.7703 125.871 39.2477 125.871 38.5859C125.871 37.9242 125.639 37.4139 125.175 37.0552C124.711 36.6903 123.87 36.3315 122.651 35.979ZM131.548 42H129.832V31.9619H131.548V42ZM129.693 29.2993C129.693 29.021 129.776 28.786 129.943 28.5942C130.117 28.4025 130.37 28.3066 130.704 28.3066C131.038 28.3066 131.292 28.4025 131.465 28.5942C131.638 28.786 131.725 29.021 131.725 29.2993C131.725 29.5776 131.638 29.8096 131.465 29.9951C131.292 30.1807 131.038 30.2734 130.704 30.2734C130.37 30.2734 130.117 30.1807 129.943 29.9951C129.776 29.8096 129.693 29.5776 129.693 29.2993ZM133.886 36.8975C133.886 35.3574 134.251 34.1204 134.981 33.1865C135.711 32.2464 136.666 31.7764 137.848 31.7764C139.023 31.7764 139.954 32.1784 140.64 32.9824V27.75H142.356V42H140.779L140.696 40.9238C140.009 41.765 139.054 42.1855 137.829 42.1855C136.666 42.1855 135.717 41.7093 134.981 40.7568C134.251 39.8044 133.886 38.5612 133.886 37.0273V36.8975ZM135.603 37.0923C135.603 38.2303 135.838 39.1209 136.308 39.7642C136.778 40.4074 137.427 40.729 138.256 40.729C139.344 40.729 140.139 40.2404 140.64 39.2632V34.6523C140.127 33.7061 139.338 33.2329 138.274 33.2329C137.433 33.2329 136.778 33.5576 136.308 34.207C135.838 34.8564 135.603 35.8182 135.603 37.0923ZM149.194 42.1855C147.833 42.1855 146.726 41.7402 145.873 40.8496C145.019 39.9528 144.592 38.756 144.592 37.2593V36.9438C144.592 35.9481 144.781 35.0605 145.158 34.2812C145.542 33.4958 146.074 32.8835 146.754 32.4443C147.44 31.999 148.183 31.7764 148.98 31.7764C150.285 31.7764 151.3 32.2062 152.023 33.0659C152.747 33.9256 153.109 35.1564 153.109 36.7583V37.4727H146.309C146.333 38.4622 146.621 39.2632 147.171 39.8755C147.728 40.4816 148.433 40.7847 149.287 40.7847C149.893 40.7847 150.406 40.661 150.827 40.4136C151.247 40.1662 151.615 39.8384 151.931 39.4302L152.979 40.2466C152.138 41.5392 150.876 42.1855 149.194 42.1855ZM148.98 33.1865C148.288 33.1865 147.706 33.4401 147.236 33.9473C146.766 34.4482 146.476 35.1533 146.364 36.0625H151.393V35.9326C151.343 35.0605 151.108 34.3864 150.688 33.9102C150.267 33.4277 149.698 33.1865 148.98 33.1865Z" fill="black"/>
<rect x="398" width="219" height="72" rx="18" fill="#EFF4F8"/>
<path d="M473.504 37.7139C473.337 39.1426 472.808 40.2466 471.917 41.0259C471.033 41.799 469.855 42.1855 468.383 42.1855C466.787 42.1855 465.507 41.6134 464.542 40.4692C463.583 39.325 463.104 37.7943 463.104 35.877V34.5781C463.104 33.3226 463.327 32.2186 463.772 31.2661C464.223 30.3136 464.861 29.5838 465.683 29.0767C466.506 28.5633 467.458 28.3066 468.541 28.3066C469.975 28.3066 471.126 28.7087 471.992 29.5127C472.858 30.3105 473.362 31.4176 473.504 32.834H471.713C471.559 31.7578 471.222 30.9785 470.702 30.4961C470.189 30.0137 469.468 29.7725 468.541 29.7725C467.403 29.7725 466.509 30.193 465.859 31.0342C465.216 31.8753 464.895 33.0721 464.895 34.6245V35.9326C464.895 37.3984 465.201 38.5643 465.813 39.4302C466.425 40.2961 467.282 40.729 468.383 40.729C469.372 40.729 470.13 40.5063 470.656 40.061C471.188 39.6095 471.54 38.8271 471.713 37.7139H473.504ZM475.22 36.8882C475.22 35.9048 475.412 35.0203 475.795 34.2349C476.185 33.4494 476.723 32.8433 477.41 32.4165C478.102 31.9897 478.891 31.7764 479.775 31.7764C481.142 31.7764 482.246 32.2495 483.087 33.1958C483.935 34.1421 484.358 35.4007 484.358 36.9717V37.0923C484.358 38.0695 484.17 38.9478 483.792 39.7271C483.421 40.5002 482.886 41.1032 482.188 41.5361C481.495 41.9691 480.697 42.1855 479.794 42.1855C478.433 42.1855 477.329 41.7124 476.482 40.7661C475.641 39.8198 475.22 38.5674 475.22 37.0088V36.8882ZM476.946 37.0923C476.946 38.2056 477.202 39.0993 477.716 39.7734C478.235 40.4476 478.928 40.7847 479.794 40.7847C480.666 40.7847 481.359 40.4445 481.872 39.7642C482.385 39.0776 482.642 38.119 482.642 36.8882C482.642 35.7873 482.379 34.8966 481.854 34.2163C481.334 33.5298 480.641 33.1865 479.775 33.1865C478.928 33.1865 478.245 33.5236 477.725 34.1978C477.206 34.8719 476.946 35.8368 476.946 37.0923ZM488.134 31.9619L488.19 33.2236C488.957 32.2588 489.959 31.7764 491.196 31.7764C493.317 31.7764 494.387 32.9731 494.406 35.3667V42H492.689V35.3574C492.683 34.6338 492.516 34.0988 492.188 33.7524C491.867 33.4061 491.363 33.2329 490.676 33.2329C490.12 33.2329 489.631 33.3813 489.21 33.6782C488.79 33.9751 488.462 34.3647 488.227 34.8472V42H486.511V31.9619H488.134ZM499.323 29.5312V31.9619H501.197V33.2886H499.323V39.5137C499.323 39.9157 499.406 40.2188 499.573 40.4229C499.74 40.6208 500.025 40.7197 500.427 40.7197C500.625 40.7197 500.897 40.6826 501.243 40.6084V42C500.792 42.1237 500.353 42.1855 499.926 42.1855C499.159 42.1855 498.581 41.9536 498.191 41.4897C497.801 41.0259 497.606 40.3672 497.606 39.5137V33.2886H495.779V31.9619H497.606V29.5312H499.323ZM508.062 33.502C507.802 33.4587 507.521 33.437 507.218 33.437C506.092 33.437 505.328 33.9163 504.926 34.875V42H503.21V31.9619H504.88L504.908 33.1216C505.471 32.2248 506.268 31.7764 507.301 31.7764C507.635 31.7764 507.889 31.8197 508.062 31.9062V33.502ZM509.008 36.8882C509.008 35.9048 509.2 35.0203 509.583 34.2349C509.973 33.4494 510.511 32.8433 511.198 32.4165C511.89 31.9897 512.679 31.7764 513.563 31.7764C514.93 31.7764 516.034 32.2495 516.875 33.1958C517.723 34.1421 518.146 35.4007 518.146 36.9717V37.0923C518.146 38.0695 517.958 38.9478 517.581 39.7271C517.209 40.5002 516.674 41.1032 515.976 41.5361C515.283 41.9691 514.485 42.1855 513.582 42.1855C512.221 42.1855 511.117 41.7124 510.27 40.7661C509.429 39.8198 509.008 38.5674 509.008 37.0088V36.8882ZM510.734 37.0923C510.734 38.2056 510.991 39.0993 511.504 39.7734C512.023 40.4476 512.716 40.7847 513.582 40.7847C514.454 40.7847 515.147 40.4445 515.66 39.7642C516.174 39.0776 516.43 38.119 516.43 36.8882C516.43 35.7873 516.167 34.8966 515.642 34.2163C515.122 33.5298 514.429 33.1865 513.563 33.1865C512.716 33.1865 512.033 33.5236 511.513 34.1978C510.994 34.8719 510.734 35.8368 510.734 37.0923ZM522.164 42H520.447V27.75H522.164V42ZM529.084 42.1855C527.724 42.1855 526.617 41.7402 525.763 40.8496C524.91 39.9528 524.483 38.756 524.483 37.2593V36.9438C524.483 35.9481 524.672 35.0605 525.049 34.2812C525.432 33.4958 525.964 32.8835 526.645 32.4443C527.331 31.999 528.073 31.7764 528.871 31.7764C530.176 31.7764 531.19 32.2062 531.914 33.0659C532.638 33.9256 533 35.1564 533 36.7583V37.4727H526.199C526.224 38.4622 526.512 39.2632 527.062 39.8755C527.619 40.4816 528.324 40.7847 529.177 40.7847C529.783 40.7847 530.297 40.661 530.717 40.4136C531.138 40.1662 531.506 39.8384 531.821 39.4302L532.87 40.2466C532.028 41.5392 530.767 42.1855 529.084 42.1855ZM528.871 33.1865C528.178 33.1865 527.597 33.4401 527.127 33.9473C526.657 34.4482 526.366 35.1533 526.255 36.0625H531.283V35.9326C531.234 35.0605 530.999 34.3864 530.578 33.9102C530.158 33.4277 529.589 33.1865 528.871 33.1865ZM539.846 33.502C539.586 33.4587 539.305 33.437 539.002 33.437C537.876 33.437 537.112 33.9163 536.71 34.875V42H534.994V31.9619H536.664L536.692 33.1216C537.255 32.2248 538.053 31.7764 539.085 31.7764C539.419 31.7764 539.673 31.8197 539.846 31.9062V33.502Z" fill="black"/>
<rect x="793" width="219" height="72" rx="18" fill="#EFF4F8"/>
<path d="M873.548 35.979C872.02 35.5399 870.907 35.0018 870.208 34.3647C869.515 33.7215 869.169 32.9299 869.169 31.9897C869.169 30.9259 869.593 30.0477 870.44 29.355C871.293 28.6561 872.401 28.3066 873.761 28.3066C874.689 28.3066 875.515 28.486 876.238 28.8447C876.968 29.2035 877.531 29.6982 877.927 30.3291C878.329 30.96 878.53 31.6496 878.53 32.3979H876.739C876.739 31.5815 876.479 30.9414 875.96 30.4775C875.44 30.0075 874.708 29.7725 873.761 29.7725C872.883 29.7725 872.196 29.9673 871.702 30.3569C871.213 30.7404 870.969 31.2754 870.969 31.9619C870.969 32.5124 871.201 32.9793 871.665 33.3628C872.135 33.7401 872.929 34.0864 874.049 34.4019C875.174 34.7173 876.053 35.0667 876.684 35.4502C877.321 35.8275 877.791 36.2697 878.094 36.7769C878.403 37.284 878.558 37.8809 878.558 38.5674C878.558 39.6621 878.131 40.5404 877.277 41.2021C876.424 41.8577 875.283 42.1855 873.854 42.1855C872.926 42.1855 872.06 42.0093 871.256 41.6567C870.452 41.298 869.831 40.8094 869.392 40.1909C868.959 39.5724 868.742 38.8704 868.742 38.085H870.533C870.533 38.9014 870.833 39.5477 871.433 40.0239C872.039 40.494 872.846 40.729 873.854 40.729C874.794 40.729 875.515 40.5373 876.016 40.1538C876.517 39.7703 876.767 39.2477 876.767 38.5859C876.767 37.9242 876.535 37.4139 876.071 37.0552C875.607 36.6903 874.766 36.3315 873.548 35.979ZM884.746 42.1855C883.385 42.1855 882.278 41.7402 881.424 40.8496C880.571 39.9528 880.144 38.756 880.144 37.2593V36.9438C880.144 35.9481 880.333 35.0605 880.71 34.2812C881.093 33.4958 881.625 32.8835 882.306 32.4443C882.992 31.999 883.734 31.7764 884.532 31.7764C885.837 31.7764 886.852 32.2062 887.575 33.0659C888.299 33.9256 888.661 35.1564 888.661 36.7583V37.4727H881.86C881.885 38.4622 882.173 39.2632 882.723 39.8755C883.28 40.4816 883.985 40.7847 884.838 40.7847C885.444 40.7847 885.958 40.661 886.378 40.4136C886.799 40.1662 887.167 39.8384 887.482 39.4302L888.531 40.2466C887.69 41.5392 886.428 42.1855 884.746 42.1855ZM884.532 33.1865C883.84 33.1865 883.258 33.4401 882.788 33.9473C882.318 34.4482 882.027 35.1533 881.916 36.0625H886.944V35.9326C886.895 35.0605 886.66 34.3864 886.239 33.9102C885.819 33.4277 885.25 33.1865 884.532 33.1865ZM895.507 33.502C895.248 33.4587 894.966 33.437 894.663 33.437C893.537 33.437 892.774 33.9163 892.372 34.875V42H890.655V31.9619H892.325L892.353 33.1216C892.916 32.2248 893.714 31.7764 894.747 31.7764C895.081 31.7764 895.334 31.8197 895.507 31.9062V33.502ZM900.573 39.6714L903.059 31.9619H904.812L901.213 42H899.905L896.268 31.9619H898.021L900.573 39.6714ZM908.329 42H906.612V31.9619H908.329V42ZM906.473 29.2993C906.473 29.021 906.557 28.786 906.724 28.5942C906.897 28.4025 907.15 28.3066 907.484 28.3066C907.818 28.3066 908.072 28.4025 908.245 28.5942C908.418 28.786 908.505 29.021 908.505 29.2993C908.505 29.5776 908.418 29.8096 908.245 29.9951C908.072 30.1807 907.818 30.2734 907.484 30.2734C907.15 30.2734 906.897 30.1807 906.724 29.9951C906.557 29.8096 906.473 29.5776 906.473 29.2993ZM915.11 40.7847C915.723 40.7847 916.258 40.5991 916.715 40.228C917.173 39.8569 917.427 39.3931 917.476 38.8364H919.1C919.069 39.4116 918.871 39.959 918.506 40.4785C918.141 40.998 917.652 41.4124 917.04 41.7217C916.434 42.0309 915.791 42.1855 915.11 42.1855C913.743 42.1855 912.655 41.731 911.845 40.8218C911.041 39.9064 910.639 38.6571 910.639 37.0737V36.7861C910.639 35.8089 910.818 34.9399 911.177 34.1792C911.535 33.4185 912.049 32.8278 912.717 32.4072C913.391 31.9867 914.186 31.7764 915.101 31.7764C916.227 31.7764 917.161 32.1134 917.903 32.7876C918.651 33.4618 919.05 34.3369 919.1 35.4131H917.476C917.427 34.7637 917.179 34.2318 916.734 33.8174C916.295 33.3968 915.75 33.1865 915.101 33.1865C914.229 33.1865 913.552 33.502 913.069 34.1328C912.593 34.7575 912.355 35.6636 912.355 36.8511V37.1758C912.355 38.3324 912.593 39.223 913.069 39.8477C913.546 40.4723 914.226 40.7847 915.11 40.7847ZM925.195 42.1855C923.834 42.1855 922.727 41.7402 921.874 40.8496C921.02 39.9528 920.593 38.756 920.593 37.2593V36.9438C920.593 35.9481 920.782 35.0605 921.159 34.2812C921.543 33.4958 922.075 32.8835 922.755 32.4443C923.441 31.999 924.184 31.7764 924.981 31.7764C926.286 31.7764 927.301 32.2062 928.024 33.0659C928.748 33.9256 929.11 35.1564 929.11 36.7583V37.4727H922.31C922.334 38.4622 922.622 39.2632 923.172 39.8755C923.729 40.4816 924.434 40.7847 925.288 40.7847C925.894 40.7847 926.407 40.661 926.828 40.4136C927.248 40.1662 927.616 39.8384 927.932 39.4302L928.98 40.2466C928.139 41.5392 926.877 42.1855 925.195 42.1855ZM924.981 33.1865C924.289 33.1865 923.707 33.4401 923.237 33.9473C922.767 34.4482 922.477 35.1533 922.365 36.0625H927.394V35.9326C927.344 35.0605 927.109 34.3864 926.688 33.9102C926.268 33.4277 925.699 33.1865 924.981 33.1865Z" fill="black"/>
<path d="M360.061 37.0607C360.646 36.4749 360.646 35.5251 360.061 34.9393L350.515 25.3934C349.929 24.8076 348.979 24.8076 348.393 25.3934C347.808 25.9792 347.808 26.9289 348.393 27.5147L356.879 36L348.393 44.4853C347.808 45.0711 347.808 46.0208 348.393 46.6066C348.979 47.1924 349.929 47.1924 350.515 46.6066L360.061 37.0607ZM256 37.5H359V34.5H256V37.5Z" fill="#EFF4F8"/>
<path d="M744.061 37.0607C744.646 36.4749 744.646 35.5251 744.061 34.9393L734.515 25.3934C733.929 24.8076 732.979 24.8076 732.393 25.3934C731.808 25.9792 731.808 26.9289 732.393 27.5147L740.879 36L732.393 44.4853C731.808 45.0711 731.808 46.0208 732.393 46.6066C732.979 47.1924 733.929 47.1924 734.515 46.6066L744.061 37.0607ZM640 37.5H743V34.5H640V37.5Z" fill="#EFF4F8"/>
</svg>
